<svg width="25" height="24" viewBox="0 0 25 24" fill="none" xmlns="http://www.w3.org/2000/svg">
<g id="mi:delete">
<path id="Vector" d="M7.5 4C7.5 3.46957 7.71071 2.96086 8.08579 2.58579C8.46086 2.21071 8.96957 2 9.5 2H15.5C16.0304 2 16.5391 2.21071 16.9142 2.58579C17.2893 2.96086 17.5 3.46957 17.5 4V6H21.5C21.7652 6 22.0196 6.10536 22.2071 6.29289C22.3946 6.48043 22.5 6.73478 22.5 7C22.5 7.26522 22.3946 7.51957 22.2071 7.70711C22.0196 7.89464 21.7652 8 21.5 8H20.431L19.564 20.142C19.5281 20.6466 19.3023 21.1188 18.9321 21.4636C18.5619 21.8083 18.0749 22 17.569 22H7.43C6.92414 22 6.43707 21.8083 6.06688 21.4636C5.6967 21.1188 5.47092 20.6466 5.435 20.142L4.57 8H3.5C3.23478 8 2.98043 7.89464 2.79289 7.70711C2.60536 7.51957 2.5 7.26522 2.5 7C2.5 6.73478 2.60536 6.48043 2.79289 6.29289C2.98043 6.10536 3.23478 6 3.5 6H7.5V4ZM9.5 6H15.5V4H9.5V6ZM6.574 8L7.431 20H17.57L18.427 8H6.574ZM10.5 10C10.7652 10 11.0196 10.1054 11.2071 10.2929C11.3946 10.4804 11.5 10.7348 11.5 11V17C11.5 17.2652 11.3946 17.5196 11.2071 17.7071C11.0196 17.8946 10.7652 18 10.5 18C10.2348 18 9.98043 17.8946 9.79289 17.7071C9.60536 17.5196 9.5 17.2652 9.5 17V11C9.5 10.7348 9.60536 10.4804 9.79289 10.2929C9.98043 10.1054 10.2348 10 10.5 10ZM14.5 10C14.7652 10 15.0196 10.1054 15.2071 10.2929C15.3946 10.4804 15.5 10.7348 15.5 11V17C15.5 17.2652 15.3946 17.5196 15.2071 17.7071C15.0196 17.8946 14.7652 18 14.5 18C14.2348 18 13.9804 17.8946 13.7929 17.7071C13.6054 17.5196 13.5 17.2652 13.5 17V11C13.5 10.7348 13.6054 10.4804 13.7929 10.2929C13.9804 10.1054 14.2348 10 14.5 10Z" fill="#F24E1E"/>
</g>
</svg>
