<svg width="25" height="25" viewBox="0 0 25 25" fill="none" xmlns="http://www.w3.org/2000/svg">
<g clip-path="url(#clip0_81_1199)">
<path d="M13.3928 16.0714L8.03564 17.0357L8.9285 11.6071L19.1606 1.41072C19.3266 1.24335 19.5242 1.1105 19.7418 1.01984C19.9594 0.929183 20.1928 0.882507 20.4285 0.882507C20.6642 0.882507 20.8976 0.929183 21.1152 1.01984C21.3329 1.1105 21.5304 1.24335 21.6964 1.41072L23.5892 3.30358C23.7566 3.46958 23.8894 3.66708 23.9801 3.88469C24.0708 4.10229 24.1174 4.3357 24.1174 4.57143C24.1174 4.80717 24.0708 5.04057 23.9801 5.25818C23.8894 5.47578 23.7566 5.67328 23.5892 5.83929L13.3928 16.0714Z" stroke="#343434" stroke-linecap="round" stroke-linejoin="round"/>
<path d="M21.4285 16.9643V22.3214C21.4285 22.795 21.2404 23.2492 20.9055 23.5841C20.5706 23.919 20.1164 24.1071 19.6428 24.1071H2.67854C2.20494 24.1071 1.75073 23.919 1.41585 23.5841C1.08096 23.2492 0.892822 22.795 0.892822 22.3214V5.35713C0.892822 4.88352 1.08096 4.42932 1.41585 4.09443C1.75073 3.75955 2.20494 3.57141 2.67854 3.57141H8.03568" stroke="#343434" stroke-linecap="round" stroke-linejoin="round"/>
</g>
<defs>
<clipPath id="clip0_81_1199">
<rect width="25" height="25" fill="white"/>
</clipPath>
</defs>
</svg>
