<svg width="25" height="24" viewBox="0 0 25 24" fill="none" xmlns="http://www.w3.org/2000/svg">
<path d="M11.5 5.88218V19.2402C11.5 20.2121 10.7121 21 9.74018 21C8.99646 21 8.33302 20.5325 8.08288 19.8321L5.93647 13.6829M18.5 13C20.1569 13 21.5 11.6569 21.5 10C21.5 8.34315 20.1569 7 18.5 7M5.93647 13.6829C4.5043 13.0741 3.5 11.6543 3.5 10C3.5 7.79086 5.29086 6 7.49999 6H9.33208C13.4327 6 16.9569 4.7659 18.5 3L18.5 17C16.9569 15.2341 13.4327 14 9.33208 14L7.49998 14C6.94518 14 6.41677 13.887 5.93647 13.6829Z" stroke="white" stroke-width="2" stroke-linecap="round" stroke-linejoin="round"/>
</svg>
